# MagicaVoxel @ Ephtracy

# material
mtllib block_moveable.mtl
usemtl palette

# normals
vn -1 0 0
vn 1 0 0
vn 0 0 1
vn 0 0 -1
vn 0 -1 0
vn 0 1 0

# texcoords
vt 0.947266 0.5
vt 0.974609 0.5
vt 0.978516 0.5

# verts
v -3 0 3
v -3 0 -3
v -3 1 2
v -3 1 1
v -3 1 -1
v -3 1 -2
v -3 2 2
v -3 2 1
v -3 2 -1
v -3 2 -2
v -3 3 1
v -3 3 -0
v -3 4 1
v -3 4 -0
v -3 4 -1
v -3 4 -3
v -3 5 -1
v -3 5 -3
v -3 6 3
v -3 6 -3
v 3 0 3
v 3 0 2
v 3 0 1
v 3 0 -1
v 3 0 -2
v 3 0 -3
v 3 1 2
v 3 1 1
v 3 1 -1
v 3 1 -2
v 3 2 1
v 3 2 -0
v 3 3 1
v 3 3 -0
v 3 3 -1
v 3 3 -2
v 3 4 1
v 3 4 -0
v 3 4 -1
v 3 4 -2
v 3 5 1
v 3 5 -0
v 3 6 3
v 3 6 -3
v -3 0 3
v -3 6 3
v -2 3 3
v -2 4 3
v -1 1 3
v -1 2 3
v -1 3 3
v -1 4 3
v 0 1 3
v 0 2 3
v 0 3 3
v 0 4 3
v 1 3 3
v 1 4 3
v 1 5 3
v 1 6 3
v 2 5 3
v 2 6 3
v 3 0 3
v 3 6 3
v -3 0 -3
v -3 4 -3
v -3 5 -3
v -3 6 -3
v -2 2 -3
v -2 3 -3
v -2 4 -3
v -2 5 -3
v -1 2 -3
v -1 3 -3
v 0 3 -3
v 0 4 -3
v 1 1 -3
v 1 2 -3
v 1 3 -3
v 1 4 -3
v 1 5 -3
v 2 1 -3
v 2 2 -3
v 2 4 -3
v 2 5 -3
v 3 0 -3
v 3 6 -3
v -3 0 3
v 3 0 3
v 2 0 2
v 3 0 2
v 2 0 1
v 3 0 1
v 2 0 -1
v 3 0 -1
v 2 0 -2
v 3 0 -2
v -3 0 -3
v 3 0 -3
v -3 6 3
v 1 6 3
v 2 6 3
v 3 6 3
v 1 6 2
v 2 6 2
v -2 6 1
v -1 6 1
v 0 6 1
v 1 6 1
v -2 6 -0
v -1 6 -0
v 0 6 -0
v 1 6 -0
v -2 6 -1
v -1 6 -1
v 1 6 -1
v 2 6 -1
v -2 6 -2
v -1 6 -2
v 1 6 -2
v 2 6 -2
v -3 6 -3
v 3 6 -3

# faces
f 3/3/1 2/3/1 1/3/1
f 4/3/1 2/3/1 3/3/1
f 5/3/1 2/3/1 4/3/1
f 6/3/1 2/3/1 5/3/1
f 7/3/1 3/3/1 1/3/1
f 7/1/1 4/1/1 3/1/1
f 8/3/1 5/3/1 4/3/1
f 8/1/1 4/1/1 7/1/1
f 9/1/1 6/1/1 5/1/1
f 9/3/1 5/3/1 8/3/1
f 10/3/1 2/3/1 6/3/1
f 10/1/1 6/1/1 9/1/1
f 11/3/1 9/3/1 8/3/1
f 11/3/1 8/3/1 7/3/1
f 11/3/1 10/3/1 9/3/1
f 12/3/1 10/3/1 11/3/1
f 13/3/1 11/3/1 7/3/1
f 13/1/1 12/1/1 11/1/1
f 14/3/1 10/3/1 12/3/1
f 14/1/1 12/1/1 13/1/1
f 15/3/1 10/3/1 14/3/1
f 16/3/1 2/3/1 10/3/1
f 16/3/1 10/3/1 15/3/1
f 17/3/1 15/3/1 14/3/1
f 17/3/1 14/3/1 13/3/1
f 17/1/1 16/1/1 15/1/1
f 18/1/1 16/1/1 17/1/1
f 19/3/1 7/3/1 1/3/1
f 19/3/1 13/3/1 7/3/1
f 19/3/1 18/3/1 17/3/1
f 19/3/1 17/3/1 13/3/1
f 20/3/1 18/3/1 19/3/1
f 21/3/2 22/3/2 27/3/2
f 22/1/2 23/1/2 27/1/2
f 23/3/2 24/3/2 28/3/2
f 27/1/2 23/1/2 28/1/2
f 24/1/2 25/1/2 29/1/2
f 28/3/2 24/3/2 29/3/2
f 25/3/2 26/3/2 30/3/2
f 29/1/2 25/1/2 30/1/2
f 28/3/2 29/3/2 31/3/2
f 27/3/2 28/3/2 31/3/2
f 29/3/2 30/3/2 31/3/2
f 31/3/2 30/3/2 32/3/2
f 27/3/2 31/3/2 33/3/2
f 31/1/2 32/1/2 33/1/2
f 32/3/2 30/3/2 34/3/2
f 33/1/2 32/1/2 34/1/2
f 34/3/2 30/3/2 35/3/2
f 30/3/2 26/3/2 36/3/2
f 35/3/2 30/3/2 36/3/2
f 34/3/2 35/3/2 37/3/2
f 27/3/2 33/3/2 37/3/2
f 33/3/2 34/3/2 37/3/2
f 37/3/2 35/3/2 38/3/2
f 35/1/2 36/1/2 39/1/2
f 38/3/2 35/3/2 39/3/2
f 36/3/2 26/3/2 40/3/2
f 39/1/2 36/1/2 40/1/2
f 37/1/2 38/1/2 41/1/2
f 27/3/2 37/3/2 41/3/2
f 38/3/2 39/3/2 42/3/2
f 41/1/2 38/1/2 42/1/2
f 39/3/2 40/3/2 42/3/2
f 27/3/2 41/3/2 43/3/2
f 21/3/2 27/3/2 43/3/2
f 41/3/2 42/3/2 43/3/2
f 42/3/2 40/3/2 44/3/2
f 43/3/2 42/3/2 44/3/2
f 40/3/2 26/3/2 44/3/2
f 47/3/3 46/3/3 45/3/3
f 48/3/3 46/3/3 47/3/3
f 49/3/3 47/3/3 45/3/3
f 50/3/3 47/3/3 49/3/3
f 51/1/3 48/1/3 47/1/3
f 51/3/3 47/3/3 50/3/3
f 52/3/3 46/3/3 48/3/3
f 52/1/3 48/1/3 51/1/3
f 53/1/3 50/1/3 49/1/3
f 53/3/3 49/3/3 45/3/3
f 54/3/3 51/3/3 50/3/3
f 54/1/3 50/1/3 53/1/3
f 54/3/3 52/3/3 51/3/3
f 55/3/3 52/3/3 54/3/3
f 56/3/3 46/3/3 52/3/3
f 56/3/3 52/3/3 55/3/3
f 57/3/3 55/3/3 54/3/3
f 57/3/3 54/3/3 53/3/3
f 57/1/3 56/1/3 55/1/3
f 58/3/3 46/3/3 56/3/3
f 58/1/3 56/1/3 57/1/3
f 59/3/3 46/3/3 58/3/3
f 60/3/3 46/3/3 59/3/3
f 61/3/3 58/3/3 57/3/3
f 61/3/3 59/3/3 58/3/3
f 61/1/3 60/1/3 59/1/3
f 62/1/3 60/1/3 61/1/3
f 63/3/3 53/3/3 45/3/3
f 63/3/3 57/3/3 53/3/3
f 63/3/3 62/3/3 61/3/3
f 63/3/3 61/3/3 57/3/3
f 64/3/3 62/3/3 63/3/3
f 65/3/4 66/3/4 69/3/4
f 69/3/4 66/3/4 70/3/4
f 66/1/4 67/1/4 71/1/4
f 70/3/4 66/3/4 71/3/4
f 67/3/4 68/3/4 72/3/4
f 71/1/4 67/1/4 72/1/4
f 69/1/4 70/1/4 73/1/4
f 65/3/4 69/3/4 73/3/4
f 70/3/4 71/3/4 74/3/4
f 73/1/4 70/1/4 74/1/4
f 71/3/4 72/3/4 74/3/4
f 73/3/4 74/3/4 75/3/4
f 74/3/4 72/3/4 75/3/4
f 75/3/4 72/3/4 76/3/4
f 65/3/4 73/3/4 77/3/4
f 73/3/4 75/3/4 77/3/4
f 77/3/4 75/3/4 78/3/4
f 75/1/4 76/1/4 79/1/4
f 78/3/4 75/3/4 79/3/4
f 76/3/4 72/3/4 80/3/4
f 79/1/4 76/1/4 80/1/4
f 72/3/4 68/3/4 81/3/4
f 80/3/4 72/3/4 81/3/4
f 77/1/4 78/1/4 82/1/4
f 65/3/4 77/3/4 82/3/4
f 78/3/4 79/3/4 83/3/4
f 82/1/4 78/1/4 83/1/4
f 79/3/4 80/3/4 83/3/4
f 80/1/4 81/1/4 84/1/4
f 83/3/4 80/3/4 84/3/4
f 81/3/4 68/3/4 85/3/4
f 84/1/4 81/1/4 85/1/4
f 65/3/4 82/3/4 86/3/4
f 82/3/4 83/3/4 86/3/4
f 84/3/4 85/3/4 86/3/4
f 83/3/4 84/3/4 86/3/4
f 85/3/4 68/3/4 87/3/4
f 86/3/4 85/3/4 87/3/4
f 90/3/5 89/3/5 88/3/5
f 91/3/5 89/3/5 90/3/5
f 92/3/5 90/3/5 88/3/5
f 92/1/5 91/1/5 90/1/5
f 93/1/5 91/1/5 92/1/5
f 94/3/5 92/3/5 88/3/5
f 94/3/5 93/3/5 92/3/5
f 95/3/5 93/3/5 94/3/5
f 96/3/5 94/3/5 88/3/5
f 96/1/5 95/1/5 94/1/5
f 97/1/5 95/1/5 96/1/5
f 98/3/5 96/3/5 88/3/5
f 98/3/5 97/3/5 96/3/5
f 99/3/5 97/3/5 98/3/5
f 100/3/6 101/3/6 104/3/6
f 101/1/6 102/1/6 104/1/6
f 102/3/6 103/3/6 105/3/6
f 104/1/6 102/1/6 105/1/6
f 100/3/6 104/3/6 106/3/6
f 104/3/6 105/3/6 106/3/6
f 106/3/6 105/3/6 107/3/6
f 107/3/6 105/3/6 108/3/6
f 108/3/6 105/3/6 109/3/6
f 100/3/6 106/3/6 110/3/6
f 106/1/6 107/1/6 110/1/6
f 107/3/6 108/3/6 111/3/6
f 110/1/6 107/1/6 111/1/6
f 108/1/6 109/1/6 112/1/6
f 111/3/6 108/3/6 112/3/6
f 109/3/6 105/3/6 113/3/6
f 112/1/6 109/1/6 113/1/6
f 111/3/6 112/3/6 114/3/6
f 110/3/6 111/3/6 114/3/6
f 112/3/6 113/3/6 114/3/6
f 100/3/6 110/3/6 114/3/6
f 114/3/6 113/3/6 115/3/6
f 113/3/6 105/3/6 116/3/6
f 115/3/6 113/3/6 116/3/6
f 105/3/6 103/3/6 117/3/6
f 116/3/6 105/3/6 117/3/6
f 114/1/6 115/1/6 118/1/6
f 100/3/6 114/3/6 118/3/6
f 115/3/6 116/3/6 119/3/6
f 118/1/6 115/1/6 119/1/6
f 116/1/6 117/1/6 120/1/6
f 119/3/6 116/3/6 120/3/6
f 117/3/6 103/3/6 121/3/6
f 120/1/6 117/1/6 121/1/6
f 100/3/6 118/3/6 122/3/6
f 119/3/6 120/3/6 122/3/6
f 120/3/6 121/3/6 122/3/6
f 118/3/6 119/3/6 122/3/6
f 121/3/6 103/3/6 123/3/6
f 122/3/6 121/3/6 123/3/6
